# xmcd
#
# Track frame offsets: 
#        150
#        26407
#        67557
#        89735
#        116607
#        130440
#        162722
#
# Disc length: 3001 seconds
#
# Revision: 0
# Processed by: cddbd v1.4PL0 Copyright (c) Steve Scherf et al.
# Submitted via: ExactAudioCopy v0.90b4
#
DISCID=5b0bb707
DTITLE=Canned Heat - Hot Boogie Cannery
DYEAR=1973
DGENRE=Blues
TTITLE0=On The Road Again
TTITLE1=Election Blues
TTITLE2=Harmonica Boogie
TTITLE3=Let's Work Together
TTITLE4=Rock And Roll Music
TTITLE5=I'm Looking For My Rainbow
TTITLE6=Montreux Boogie
EXTD=
EXTT0=
EXTT1=
EXTT2=
EXTT3=
EXTT4=
EXTT5=
EXTT6=
PLAYORDER=
